<?xml version="1.0" encoding="utf-8"?><!DOCTYPE svg PUBLIC "-//W3C//DTD SVG 1.1//EN" "http://www.w3.org/Graphics/SVG/1.1/DTD/svg11.dtd"><svg viewBox="0 0 97.75 97.75" xmlns="http://www.w3.org/2000/svg" xmlns:xlink="http://www.w3.org/1999/xlink"><style>:root>svg{display:none}:root>svg:target{display:block}</style><svg fill="none" viewBox="0 0 17 9" id="arrow" xmlns="http://www.w3.org/2000/svg"><path d="m1 1 7.5 7L16 1"/></svg><svg viewBox="0 0 20 20" id="attention" xmlns="http://www.w3.org/2000/svg"><circle cx="10" cy="10" r="10"/><path d="M9.05 12.43 8.532 6.2h3.164l-.532 6.23H9.05Zm1.064 3.696c-.467 0-.85-.145-1.148-.434a1.393 1.393 0 0 1-.448-1.036c0-.41.15-.751.448-1.022.299-.28.681-.42 1.148-.42.467 0 .845.14 1.134.42.299.27.448.611.448 1.022 0 .401-.15.747-.448 1.036-.29.29-.667.434-1.134.434Z" fill="#fff"/></svg><svg viewBox="0 0 25 25" id="calculation" xmlns="http://www.w3.org/2000/svg"><g clip-path="url(#ca)"><path d="M16.58 0c-4.23 0-7.54 1.99-7.54 4.52v2.6c-.49-.06-.99-.09-1.51-.09-4.23 0-7.54 1.99-7.54 4.52v8.04c0 2.53 3.31 4.52 7.54 4.52 3.43 0 6.26-1.31 7.2-3.16.6.09 1.21.15 1.84.15 4.23 0 7.54-1.99 7.54-4.52V4.52C24.11 1.99 20.8 0 16.57 0h.01Zm0 2.01c3.16 0 5.53 1.33 5.53 2.51 0 1.18-2.36 2.51-5.53 2.51-3.17 0-5.53-1.33-5.53-2.51 0-1.18 2.36-2.51 5.53-2.51ZM7.54 9.04c3.16 0 5.53 1.33 5.53 2.51 0 1.18-2.36 2.51-5.53 2.51-3.17 0-5.53-1.33-5.53-2.51 0-1.18 2.36-2.51 5.53-2.51Zm-5.53 5.61c1.37.88 3.32 1.42 5.53 1.42 2.21 0 4.16-.55 5.53-1.42v.92c0 1.19-2.36 2.51-5.53 2.51-3.17 0-5.53-1.33-5.53-2.51v-.92Zm5.53 7.45c-3.16 0-5.53-1.33-5.53-2.51v-.92c1.37.88 3.32 1.42 5.53 1.42 2.21 0 4.16-.55 5.53-1.42v.92c0 1.19-2.36 2.51-5.53 2.51Zm9.04-3.01c-.52 0-1.02-.05-1.51-.12v-1.99c.49.06.99.1 1.51.1 2.21 0 4.16-.55 5.53-1.42v.92c0 1.19-2.36 2.51-5.53 2.51Zm0-4.02c-.52 0-1.02-.05-1.51-.12v-1.99c.49.06.99.1 1.51.1 2.21 0 4.16-.55 5.53-1.42v.92c0 1.19-2.36 2.51-5.53 2.51Zm0-4.02c-.54 0-1.07-.05-1.59-.13-.2-.89-.81-1.69-1.73-2.33 1 .29 2.12.45 3.31.45 2.21 0 4.16-.55 5.53-1.42v.92c0 1.19-2.36 2.51-5.53 2.51h.01Z"/></g><defs><clipPath id="ca"><path fill="#fff" d="M0 0h24.11v24.11H0z"/></clipPath></defs></svg><svg viewBox="0 0 25 25" id="clients" xmlns="http://www.w3.org/2000/svg"><path d="M12.06 24.11C5.4 24.11 0 18.72 0 12.06 0 5.4 5.4 0 12.06 0s12.06 5.4 12.06 12.06-5.4 12.05-12.06 12.06v-.01Zm0-22.1c-5.55 0-10.05 4.5-10.05 10.05 0 5.55 4.5 10.05 10.05 10.05 5.55 0 10.05-4.5 10.05-10.05 0-5.55-4.5-10.04-10.05-10.05Zm5.69 13.81c.41-.37.45-1 .08-1.42-.37-.41-1-.45-1.42-.08a7.59 7.59 0 0 1-4.36 1.76 7.55 7.55 0 0 1-4.35-1.75 1.01 1.01 0 0 0-1.42.08c-.37.41-.33 1.05.08 1.42 1.6 1.36 3.6 2.16 5.69 2.26 2.1-.11 4.1-.9 5.69-2.26l.01-.01ZM6.03 10.05c0 1 .9 1 2.01 1 1.11 0 2.01 0 2.01-1a2.01 2.01 0 0 0-4.02 0Zm8.04 0c0 1 .9 1 2.01 1 1.11 0 2.01 0 2.01-1a2.01 2.01 0 0 0-4.02 0Z"/></svg><svg viewBox="0 0 24 24" id="discord" xmlns="http://www.w3.org/2000/svg"><path d="M20.317 4.37a19.791 19.791 0 0 0-4.885-1.515.074.074 0 0 0-.079.037c-.21.375-.444.864-.608 1.25a18.27 18.27 0 0 0-5.487 0 12.64 12.64 0 0 0-.617-1.25.077.077 0 0 0-.079-.037A19.736 19.736 0 0 0 3.677 4.37a.07.07 0 0 0-.032.027C.533 9.046-.32 13.58.099 18.057a.082.082 0 0 0 .031.057 19.9 19.9 0 0 0 5.993 3.03.078.078 0 0 0 .084-.028 14.09 14.09 0 0 0 1.226-1.994.076.076 0 0 0-.041-.106 13.107 13.107 0 0 1-1.872-.892.077.077 0 0 1-.008-.128 10.2 10.2 0 0 0 .372-.292.074.074 0 0 1 .077-.01c3.928 1.793 8.18 1.793 12.062 0a.074.074 0 0 1 .078.01c.12.098.246.198.373.292a.077.077 0 0 1-.006.127 12.299 12.299 0 0 1-1.873.892.077.077 0 0 0-.041.107c.36.698.772 1.362 1.225 1.993a.076.076 0 0 0 .084.028 19.839 19.839 0 0 0 6.002-3.03.077.077 0 0 0 .032-.054c.5-5.177-.838-9.674-3.549-13.66a.061.061 0 0 0-.031-.03zM8.02 15.33c-1.183 0-2.157-1.085-2.157-2.419 0-1.333.956-2.419 2.157-2.419 1.21 0 2.176 1.096 2.157 2.42 0 1.333-.956 2.418-2.157 2.418zm7.975 0c-1.183 0-2.157-1.085-2.157-2.419 0-1.333.955-2.419 2.157-2.419 1.21 0 2.176 1.096 2.157 2.42 0 1.333-.946 2.418-2.157 2.418z"/></svg><svg viewBox="0 0 64 64" id="github" xmlns="http://www.w3.org/2000/svg"><path fill="currentColor" d="M32 0C14 0 0 14 0 32c0 21 19 30 22 30 2 0 2-1 2-2v-5c-7 2-10-2-11-5 0 0 0-1-2-3-1-1-5-3-1-3 3 0 5 4 5 4 3 4 7 3 9 2 0-2 2-4 2-4-8-1-14-4-14-15 0-4 1-7 3-9 0 0-2-4 0-9 0 0 5 0 9 4 3-2 13-2 16 0 4-4 9-4 9-4 2 7 0 9 0 9 2 2 3 5 3 9 0 11-7 14-14 15 1 1 2 3 2 6v8c0 1 0 2 2 2 3 0 22-9 22-30C64 14 50 0 32 0Z"/></svg><svg fill="none" viewBox="0 0 11 11" id="plus" xmlns="http://www.w3.org/2000/svg"><circle cx="5.5" cy="5.5" r="5" stroke="#000"/><path stroke="#000" stroke-linecap="round" d="M5.5 2.5v6M8.5 5.5h-6"/></svg><svg viewBox="0 0 32 32" id="settings" xmlns="http://www.w3.org/2000/svg"><g clip-path="url(#ha)"><path d="M16 10.667a5.333 5.333 0 1 0 0 10.666 5.333 5.333 0 0 0 0-10.666Zm0 8a2.667 2.667 0 1 1 0-5.334 2.667 2.667 0 0 1 0 5.334Z"/><path d="m28.392 18.533-.592-.341c.267-1.45.267-2.937 0-4.387l.592-.341a4.002 4.002 0 0 0-4-6.933l-.593.342A11.97 11.97 0 0 0 20 4.684V4a4 4 0 1 0-8 0v.684a11.969 11.969 0 0 0-3.797 2.195l-.596-.346a4.002 4.002 0 0 0-4 6.934l.592.341a12.134 12.134 0 0 0 0 4.387l-.592.341a4.002 4.002 0 1 0 4 6.933l.593-.342a11.97 11.97 0 0 0 3.8 2.189V28a4 4 0 1 0 8 0v-.684a11.97 11.97 0 0 0 3.797-2.195l.596.344a4.002 4.002 0 1 0 4-6.933l-.001.001ZM24.995 13.5a9.398 9.398 0 0 1 0 5 1.333 1.333 0 0 0 .618 1.51l1.446.835a1.334 1.334 0 1 1-1.334 2.31l-1.448-.837a1.334 1.334 0 0 0-1.62.22 9.311 9.311 0 0 1-4.324 2.5 1.333 1.333 0 0 0-1.001 1.292V28a1.333 1.333 0 0 1-2.667 0v-1.67a1.333 1.333 0 0 0-1.001-1.291 9.312 9.312 0 0 1-4.323-2.506 1.333 1.333 0 0 0-1.62-.22l-1.445.836a1.332 1.332 0 0 1-1.997-.978 1.333 1.333 0 0 1 .664-1.331l1.445-.835a1.333 1.333 0 0 0 .619-1.51 9.397 9.397 0 0 1 0-5 1.333 1.333 0 0 0-.62-1.506l-1.446-.834a1.334 1.334 0 1 1 1.334-2.311l1.448.837a1.333 1.333 0 0 0 1.618-.214 9.312 9.312 0 0 1 4.324-2.5 1.333 1.333 0 0 0 1.002-1.298V4a1.333 1.333 0 1 1 2.666 0v1.67a1.334 1.334 0 0 0 1.002 1.291 9.313 9.313 0 0 1 4.324 2.506 1.333 1.333 0 0 0 1.62.22l1.445-.836a1.333 1.333 0 1 1 1.333 2.309l-1.445.835a1.334 1.334 0 0 0-.617 1.505v-.001Z"/></g><defs><clipPath id="ha"><path fill="#fff" d="M0 0h32v32H0z"/></clipPath></defs></svg><svg viewBox="0 0 22 22" id="statistic" xmlns="http://www.w3.org/2000/svg"><path d="M21.03 20.12H4.56c-1.52 0-2.74-1.23-2.74-2.74V.91C1.82.4 1.41 0 .91 0S0 .41 0 .91v16.46c0 2.52 2.05 4.57 4.57 4.57h16.46c.51 0 .91-.41.91-.91s-.41-.91-.91-.91Z"/><path d="M5.48 18.29c.51 0 .91-.41.91-.91v-6.4c0-.51-.41-.91-.91-.91s-.91.41-.91.91v6.4c0 .51.41.91.91.91ZM9.14 9.15v8.23c0 .51.41.91.91.91s.91-.41.91-.91V9.15c0-.51-.41-.91-.91-.91s-.91.41-.91.91ZM13.71 11.89v5.49c0 .51.41.91.91.91s.91-.41.91-.91v-5.49c0-.51-.41-.91-.91-.91s-.91.41-.91.91ZM18.28 8.23v9.15c0 .51.41.91.91.91s.91-.41.91-.91V8.23c0-.51-.41-.91-.91-.91s-.91.41-.91.91ZM5.48 8.23c.24 0 .48-.1.65-.27l3.28-3.28c.36-.34.93-.34 1.29 0l1.99 1.99a2.746 2.746 0 0 0 3.88 0l5.11-5.11c.35-.36.34-.94-.02-1.29a.918.918 0 0 0-1.27 0l-5.11 5.11c-.36.36-.94.36-1.29 0L12 3.39a2.746 2.746 0 0 0-3.88 0L4.84 6.67c-.36.36-.36.94 0 1.29.17.17.4.27.65.27h-.01Z"/></svg><svg viewBox="0 0 24 24" id="telegram" xmlns="http://www.w3.org/2000/svg"><path d="M12 0C5.373 0 0 5.373 0 12s5.373 12 12 12 12-5.373 12-12S18.627 0 12 0zm5.894 8.221-1.97 9.28c-.145.658-.537.818-1.084.508l-3-2.21-1.446 1.394a.759.759 0 0 1-.6.295h-.005l.213-3.054 5.56-5.022c.24-.213-.054-.334-.373-.121L8.32 13.617l-2.96-.924c-.64-.203-.658-.64.135-.954l11.566-4.458c.538-.196 1.006.128.832.941z"/></svg><svg style="enable-background:new 0 0 97.75 97.75" xml:space="preserve" viewBox="0 0 97.75 97.75" id="vk" xmlns="http://www.w3.org/2000/svg"><path d="M48.875 0C21.883 0 0 21.882 0 48.875S21.883 97.75 48.875 97.75 97.75 75.868 97.75 48.875 75.867 0 48.875 0zm24.792 54.161c2.278 2.225 4.688 4.319 6.733 6.774.906 1.086 1.76 2.209 2.41 3.472.928 1.801.09 3.776-1.522 3.883l-10.013-.002c-2.586.214-4.644-.829-6.379-2.597-1.385-1.409-2.67-2.914-4.004-4.371-.545-.598-1.119-1.161-1.803-1.604-1.365-.888-2.551-.616-3.333.81-.797 1.451-.979 3.059-1.055 4.674-.109 2.361-.821 2.978-3.19 3.089-5.062.237-9.865-.531-14.329-3.083-3.938-2.251-6.986-5.428-9.642-9.025-5.172-7.012-9.133-14.708-12.692-22.625-.801-1.783-.215-2.737 1.752-2.774 3.268-.063 6.536-.055 9.804-.003 1.33.021 2.21.782 2.721 2.037 1.766 4.345 3.931 8.479 6.644 12.313.723 1.021 1.461 2.039 2.512 2.76 1.16.796 2.044.533 2.591-.762.35-.823.501-1.703.577-2.585.26-3.021.291-6.041-.159-9.05-.28-1.883-1.339-3.099-3.216-3.455-.956-.181-.816-.535-.351-1.081.807-.944 1.563-1.528 3.074-1.528l11.313-.002c1.783.35 2.183 1.15 2.425 2.946l.01 12.572c-.021.695.349 2.755 1.597 3.21 1 .33 1.66-.472 2.258-1.105 2.713-2.879 4.646-6.277 6.377-9.794.764-1.551 1.423-3.156 2.063-4.764.476-1.189 1.216-1.774 2.558-1.754l10.894.013c.321 0 .647.003.965.058 1.836.314 2.339 1.104 1.771 2.895-.894 2.814-2.631 5.158-4.329 7.508-1.82 2.516-3.761 4.944-5.563 7.471-1.656 2.31-1.525 3.473.531 5.479z"/></svg><svg viewBox="0 0 25 25" id="workers" xmlns="http://www.w3.org/2000/svg"><path d="M12.06 16.08a4.02 4.02 0 1 1 0-8.04 4.02 4.02 0 0 1 0 8.04Zm0-6.03a2.01 2.01 0 1 0 0 4.02 2.01 2.01 0 0 0 0-4.02Zm6.03 13.06a6.03 6.03 0 0 0-12.06 0c0 .55.45 1 1 1s1-.45 1-1a4.02 4.02 0 0 1 8.04 0c0 .55.45 1 1 1s1-.45 1-1h.02Zm0-15.07a4.02 4.02 0 1 1 0-8.04 4.02 4.02 0 0 1 0 8.04Zm0-6.03a2.01 2.01 0 1 0 0 4.02 2.01 2.01 0 0 0 0-4.02Zm6.03 13.06c0-3.33-2.7-6.03-6.03-6.03-.55 0-1 .45-1 1s.45 1 1 1c2.22 0 4.02 1.8 4.02 4.02 0 .55.45 1 1 1s1-.45 1-1l.01.01ZM6.03 8.04a4.02 4.02 0 1 1 0-8.04 4.02 4.02 0 0 1 0 8.04Zm0-6.03a2.01 2.01 0 1 0 0 4.02 2.01 2.01 0 0 0 0-4.02ZM2.01 15.07c0-2.22 1.8-4.02 4.02-4.02.55 0 1-.45 1-1s-.45-1-1-1A6.03 6.03 0 0 0 0 15.08c0 .55.45 1 1 1s1-.45 1-1l.01-.01Z"/></svg></svg>