<?xml version="1.0" encoding="utf-8"?><svg width="25" height="25" xmlns="http://www.w3.org/2000/svg" viewBox="0 0 25 25"><g clip-path="url(#ca)"><path d="M16.58 0c-4.23 0-7.54 1.99-7.54 4.52v2.6c-.49-.06-.99-.09-1.51-.09-4.23 0-7.54 1.99-7.54 4.52v8.04c0 2.53 3.31 4.52 7.54 4.52 3.43 0 6.26-1.31 7.2-3.16.6.09 1.21.15 1.84.15 4.23 0 7.54-1.99 7.54-4.52V4.52C24.11 1.99 20.8 0 16.57 0h.01Zm0 2.01c3.16 0 5.53 1.33 5.53 2.51 0 1.18-2.36 2.51-5.53 2.51-3.17 0-5.53-1.33-5.53-2.51 0-1.18 2.36-2.51 5.53-2.51ZM7.54 9.04c3.16 0 5.53 1.33 5.53 2.51 0 1.18-2.36 2.51-5.53 2.51-3.17 0-5.53-1.33-5.53-2.51 0-1.18 2.36-2.51 5.53-2.51Zm-5.53 5.61c1.37.88 3.32 1.42 5.53 1.42 2.21 0 4.16-.55 5.53-1.42v.92c0 1.19-2.36 2.51-5.53 2.51-3.17 0-5.53-1.33-5.53-2.51v-.92Zm5.53 7.45c-3.16 0-5.53-1.33-5.53-2.51v-.92c1.37.88 3.32 1.42 5.53 1.42 2.21 0 4.16-.55 5.53-1.42v.92c0 1.19-2.36 2.51-5.53 2.51Zm9.04-3.01c-.52 0-1.02-.05-1.51-.12v-1.99c.49.06.99.1 1.51.1 2.21 0 4.16-.55 5.53-1.42v.92c0 1.19-2.36 2.51-5.53 2.51Zm0-4.02c-.52 0-1.02-.05-1.51-.12v-1.99c.49.06.99.1 1.51.1 2.21 0 4.16-.55 5.53-1.42v.92c0 1.19-2.36 2.51-5.53 2.51Zm0-4.02c-.54 0-1.07-.05-1.59-.13-.2-.89-.81-1.69-1.73-2.33 1 .29 2.12.45 3.31.45 2.21 0 4.16-.55 5.53-1.42v.92c0 1.19-2.36 2.51-5.53 2.51h.01Z"/></g><defs><clipPath id="ca"><path fill="#fff" d="M0 0h24.11v24.11H0z"/></clipPath></defs></svg>