<?xml version="1.0" encoding="utf-8"?><svg width="25" height="25" xmlns="http://www.w3.org/2000/svg" viewBox="0 0 25 25"><path d="M12.06 24.11C5.4 24.11 0 18.72 0 12.06 0 5.4 5.4 0 12.06 0s12.06 5.4 12.06 12.06-5.4 12.05-12.06 12.06v-.01Zm0-22.1c-5.55 0-10.05 4.5-10.05 10.05 0 5.55 4.5 10.05 10.05 10.05 5.55 0 10.05-4.5 10.05-10.05 0-5.55-4.5-10.04-10.05-10.05Zm5.69 13.81c.41-.37.45-1 .08-1.42-.37-.41-1-.45-1.42-.08a7.59 7.59 0 0 1-4.36 1.76 7.55 7.55 0 0 1-4.35-1.75 1.01 1.01 0 0 0-1.42.08c-.37.41-.33 1.05.08 1.42 1.6 1.36 3.6 2.16 5.69 2.26 2.1-.11 4.1-.9 5.69-2.26l.01-.01ZM6.03 10.05c0 1 .9 1 2.01 1 1.11 0 2.01 0 2.01-1a2.01 2.01 0 0 0-4.02 0Zm8.04 0c0 1 .9 1 2.01 1 1.11 0 2.01 0 2.01-1a2.01 2.01 0 0 0-4.02 0Z"/></svg>