<?xml version="1.0" encoding="utf-8"?><svg width="32" height="32" xmlns="http://www.w3.org/2000/svg" viewBox="0 0 32 32"><g clip-path="url(#ha)"><path d="M16 10.667a5.333 5.333 0 1 0 0 10.666 5.333 5.333 0 0 0 0-10.666Zm0 8a2.667 2.667 0 1 1 0-5.334 2.667 2.667 0 0 1 0 5.334Z"/><path d="m28.392 18.533-.592-.341c.267-1.45.267-2.937 0-4.387l.592-.341a4.002 4.002 0 0 0-4-6.933l-.593.342A11.97 11.97 0 0 0 20 4.684V4a4 4 0 1 0-8 0v.684a11.969 11.969 0 0 0-3.797 2.195l-.596-.346a4.002 4.002 0 0 0-4 6.934l.592.341a12.134 12.134 0 0 0 0 4.387l-.592.341a4.002 4.002 0 1 0 4 6.933l.593-.342a11.97 11.97 0 0 0 3.8 2.189V28a4 4 0 1 0 8 0v-.684a11.97 11.97 0 0 0 3.797-2.195l.596.344a4.002 4.002 0 1 0 4-6.933l-.001.001ZM24.995 13.5a9.398 9.398 0 0 1 0 5 1.333 1.333 0 0 0 .618 1.51l1.446.835a1.334 1.334 0 1 1-1.334 2.31l-1.448-.837a1.334 1.334 0 0 0-1.62.22 9.311 9.311 0 0 1-4.324 2.5 1.333 1.333 0 0 0-1.001 1.292V28a1.333 1.333 0 0 1-2.667 0v-1.67a1.333 1.333 0 0 0-1.001-1.291 9.312 9.312 0 0 1-4.323-2.506 1.333 1.333 0 0 0-1.62-.22l-1.445.836a1.332 1.332 0 0 1-1.997-.978 1.333 1.333 0 0 1 .664-1.331l1.445-.835a1.333 1.333 0 0 0 .619-1.51 9.397 9.397 0 0 1 0-5 1.333 1.333 0 0 0-.62-1.506l-1.446-.834a1.334 1.334 0 1 1 1.334-2.311l1.448.837a1.333 1.333 0 0 0 1.618-.214 9.312 9.312 0 0 1 4.324-2.5 1.333 1.333 0 0 0 1.002-1.298V4a1.333 1.333 0 1 1 2.666 0v1.67a1.334 1.334 0 0 0 1.002 1.291 9.313 9.313 0 0 1 4.324 2.506 1.333 1.333 0 0 0 1.62.22l1.445-.836a1.333 1.333 0 1 1 1.333 2.309l-1.445.835a1.334 1.334 0 0 0-.617 1.505v-.001Z"/></g><defs><clipPath id="ha"><path fill="#fff" d="M0 0h32v32H0z"/></clipPath></defs></svg>