<?xml version="1.0" encoding="utf-8"?><svg width="22" height="22" xmlns="http://www.w3.org/2000/svg" viewBox="0 0 22 22"><path d="M21.03 20.12H4.56c-1.52 0-2.74-1.23-2.74-2.74V.91C1.82.4 1.41 0 .91 0S0 .41 0 .91v16.46c0 2.52 2.05 4.57 4.57 4.57h16.46c.51 0 .91-.41.91-.91s-.41-.91-.91-.91Z"/><path d="M5.48 18.29c.51 0 .91-.41.91-.91v-6.4c0-.51-.41-.91-.91-.91s-.91.41-.91.91v6.4c0 .51.41.91.91.91ZM9.14 9.15v8.23c0 .51.41.91.91.91s.91-.41.91-.91V9.15c0-.51-.41-.91-.91-.91s-.91.41-.91.91ZM13.71 11.89v5.49c0 .51.41.91.91.91s.91-.41.91-.91v-5.49c0-.51-.41-.91-.91-.91s-.91.41-.91.91ZM18.28 8.23v9.15c0 .51.41.91.91.91s.91-.41.91-.91V8.23c0-.51-.41-.91-.91-.91s-.91.41-.91.91ZM5.48 8.23c.24 0 .48-.1.65-.27l3.28-3.28c.36-.34.93-.34 1.29 0l1.99 1.99a2.746 2.746 0 0 0 3.88 0l5.11-5.11c.35-.36.34-.94-.02-1.29a.918.918 0 0 0-1.27 0l-5.11 5.11c-.36.36-.94.36-1.29 0L12 3.39a2.746 2.746 0 0 0-3.88 0L4.84 6.67c-.36.36-.36.94 0 1.29.17.17.4.27.65.27h-.01Z"/></svg>