<?xml version="1.0" encoding="utf-8"?><svg width="25" height="25" xmlns="http://www.w3.org/2000/svg" viewBox="0 0 25 25"><path d="M12.06 16.08a4.02 4.02 0 1 1 0-8.04 4.02 4.02 0 0 1 0 8.04Zm0-6.03a2.01 2.01 0 1 0 0 4.02 2.01 2.01 0 0 0 0-4.02Zm6.03 13.06a6.03 6.03 0 0 0-12.06 0c0 .55.45 1 1 1s1-.45 1-1a4.02 4.02 0 0 1 8.04 0c0 .55.45 1 1 1s1-.45 1-1h.02Zm0-15.07a4.02 4.02 0 1 1 0-8.04 4.02 4.02 0 0 1 0 8.04Zm0-6.03a2.01 2.01 0 1 0 0 4.02 2.01 2.01 0 0 0 0-4.02Zm6.03 13.06c0-3.33-2.7-6.03-6.03-6.03-.55 0-1 .45-1 1s.45 1 1 1c2.22 0 4.02 1.8 4.02 4.02 0 .55.45 1 1 1s1-.45 1-1l.01.01ZM6.03 8.04a4.02 4.02 0 1 1 0-8.04 4.02 4.02 0 0 1 0 8.04Zm0-6.03a2.01 2.01 0 1 0 0 4.02 2.01 2.01 0 0 0 0-4.02ZM2.01 15.07c0-2.22 1.8-4.02 4.02-4.02.55 0 1-.45 1-1s-.45-1-1-1A6.03 6.03 0 0 0 0 15.08c0 .55.45 1 1 1s1-.45 1-1l.01-.01Z"/></svg>