<svg width="42" height="42" fill="none" xmlns="http://www.w3.org/2000/svg">
    <path d="M20.6 41.256c11.378 0 20.602-9.235 20.602-20.628S31.978 0 20.6 0C9.223 0 0 9.235 0 20.628s9.223 20.628 20.6 20.628Z" fill="#AA82FF"/>
    <path d="M29.707 5.421a2.709 2.709 0 0 0 2.707-2.71A2.709 2.709 0 0 0 29.707 0 2.709 2.709 0 0 0 27 2.71a2.709 2.709 0 0 0 2.707 2.711ZM22 33.887 27.066 10h2.945l5.096 23.887H32.25l-1.115-6.139h-5.125l-1.145 6.139H22Zm4.419-8.291h4.299l-2.15-11.41-2.15 11.41ZM7 33.887V10h12.868v23.887h-3.005V12.182H9.995v21.705H7Z" fill="#000"/>
</svg>
